<svg xmlns="http://www.w3.org/2000/svg" viewBox="0 0 24 24" id="Instagram"><path fill="#ffffff" d="M17 23H7a6 6 0 0 1-6-6V7a6 6 0 0 1 6-6h10a6 6 0 0 1 6 6v10a6 6 0 0 1-6 6ZM7 3a4 4 0 0 0-4 4v10a4 4 0 0 0 4 4h10a4 4 0 0 0 4-4V7a4 4 0 0 0-4-4Z" class="color303c42 svgShape"></path><path fill="#ffffff" d="M12 18a6 6 0 1 1 6-6 6 6 0 0 1-6 6Zm0-10a4 4 0 1 0 4 4 4 4 0 0 0-4-4Z" data-name="&amp;lt;Group&amp;gt;" class="color303c42 svgShape"></path><circle cx="18" cy="5" r="1" fill="#ffffff" data-name="&amp;lt;Group&amp;gt;" class="color303c42 svgShape"></circle></svg>